<svg width="20" height="20" viewBox="0 0 20 20" fill="none" xmlns="http://www.w3.org/2000/svg">
<path d="M11.3774 9.67161L18.9899 2.07119C19.2175 1.84366 19.3453 1.53506 19.3453 1.21328C19.3453 0.891496 19.2175 0.582894 18.9899 0.355361C18.7624 0.127827 18.4538 0 18.132 0C17.8102 0 17.5016 0.127827 17.2741 0.355361L9.67367 7.96786L2.07326 0.355361C1.84572 0.127827 1.53712 2.85692e-07 1.21534 2.88089e-07C0.893558 2.90487e-07 0.584957 0.127827 0.357423 0.355361C0.129889 0.582894 0.00206243 0.891496 0.00206243 1.21328C0.00206243 1.53506 0.129889 1.84366 0.357423 2.07119L7.96992 9.67161L0.357423 17.272C0.244168 17.3844 0.154275 17.518 0.0929295 17.6652C0.031584 17.8125 0 17.9704 0 18.1299C0 18.2895 0.031584 18.4474 0.0929295 18.5946C0.154275 18.7419 0.244168 18.8755 0.357423 18.9879C0.469753 19.1011 0.603396 19.191 0.750643 19.2524C0.897889 19.3137 1.05583 19.3453 1.21534 19.3453C1.37485 19.3453 1.53279 19.3137 1.68004 19.2524C1.82728 19.191 1.96093 19.1011 2.07326 18.9879L9.67367 11.3754L17.2741 18.9879C17.3864 19.1011 17.5201 19.191 17.6673 19.2524C17.8146 19.3137 17.9725 19.3453 18.132 19.3453C18.2915 19.3453 18.4495 19.3137 18.5967 19.2524C18.7439 19.191 18.8776 19.1011 18.9899 18.9879C19.1032 18.8755 19.1931 18.7419 19.2544 18.5946C19.3158 18.4474 19.3473 18.2895 19.3473 18.1299C19.3473 17.9704 19.3158 17.8125 19.2544 17.6652C19.1931 17.518 19.1032 17.3844 18.9899 17.272L11.3774 9.67161Z" fill="white"/>
</svg>
