<svg width="24" height="25" viewBox="0 0 24 25" fill="none" xmlns="http://www.w3.org/2000/svg">
<path d="M12 23.0527C18.0751 23.0527 23 18.116 23 12.0264C23 5.93666 18.0751 1 12 1C5.92487 1 1 5.93666 1 12.0264C1 18.116 5.92487 23.0527 12 23.0527Z" stroke="black" stroke-width="2" stroke-linecap="round" stroke-linejoin="round"/>
<path d="M14.5666 19.7448V17.6906C14.5941 17.3493 14.5469 17.0062 14.428 16.6841C14.3092 16.362 14.1215 16.0683 13.8774 15.8225C16.18 15.572 18.6 14.7202 18.6 10.8123C18.5998 9.81289 18.206 8.85189 17.5 8.12812C17.8343 7.25384 17.8106 6.28746 17.434 5.42973C17.434 5.42973 16.5686 5.17922 14.5666 6.48905C12.8858 6.04444 11.1142 6.04444 9.43333 6.48905C7.43132 5.17922 6.56599 5.42973 6.56599 5.42973C6.18933 6.28746 6.1657 7.25384 6.49999 8.12812C5.78875 8.85726 5.39451 9.82694 5.39999 10.8336C5.39999 14.713 7.81999 15.5648 10.1226 15.8439C9.8814 16.0873 9.69531 16.3775 9.57654 16.6957C9.45778 17.0138 9.40898 17.3528 9.43333 17.6906V19.7448" stroke="black" stroke-width="2" stroke-linecap="round" stroke-linejoin="round"/>
<path d="M9.43334 18.3133C7.23334 19.0099 5.4 18.3133 4.3 16.1661" stroke="black" stroke-width="2" stroke-linecap="round" stroke-linejoin="round"/>
</svg>
